  0
SECTION
  2
HEADER
  9
$ANGBASE
  50
0.0
  9
$ANGDIR
  70
1
  9
$MEASUREMENT
  70
0
  0
ENDSEC
  0
SECTION
  2
TABLES
  0
TABLE
  2
LTYPE
  70
4
  0
LTYPE
  5
40F
  2
CONTINUOUS
  70
0
  3
Solid line
  72
65
  73
0
  40
0.0
  0
LTYPE
  5
410
  2
DASHDOT
 70
0
  3
Dash Dot ____ _ ____ _
 72
65
 73
4
 40
2.0
 49
1.25
 49
-0.25
 49
0.25
 49
-0.25
  0
LTYPE
  5
411
  2
DASHED
 70
0
  3
Dashed __ __ __ __ __
 72
65
 73
2
 40
0.75
 49
0.5
 49
-0.25
  0
LTYPE
  5
43B
  2
DOTTED
 70
0
  3
Dotted .  .  .  .
 72
65
 73
2
 40
0.2
 49
0.0
 49
-0.2
  0
ENDTAB
  0
TABLE
  2
STYLE
  70
4
  0
STYLE
  2
KICAD
  70
0
  40
0
  41
1
  42
1
  50
0
  71
0
  3
isocp.shx
  0
STYLE
  2
KICADB
  70
0
  40
0
  41
1
  42
1
  50
0
  71
0
  3
isocp.shx
  0
STYLE
  2
KICADI
  70
0
  40
0
  41
1
  42
1
  50
15
  71
0
  3
isocp.shx
  0
STYLE
  2
KICADBI
  70
0
  40
0
  41
1
  42
1
  50
15
  71
0
  3
isocp.shx
  0
ENDTAB
  0
TABLE
  2
LAYER
  70
1
  0
LAYER
  2
BLACK
  70
0
  62
7
  6
CONTINUOUS
  0
ENDTAB
  0
ENDSEC
  0
SECTION
  2
ENTITIES
0
CIRCLE
8
BLACK
10
4.1338582677165352
20
-7.3228346456692908
40
0.3346456692913386
0
CIRCLE
8
BLACK
10
4.6259842519685037
20
-4.726903937007874
40
0.1259842519685039
0
CIRCLE
8
BLACK
10
3.4448818897637796
20
-4.726903937007874
40
0.1259842519685039
0
CIRCLE
8
BLACK
10
5.8070866141732278
20
-8.7229669291338574
40
0.0393700787401575
0
CIRCLE
8
BLACK
10
4.6259842519685037
20
-4.4119433070866139
40
0.0393700787401575
0
CIRCLE
8
BLACK
10
2.2834645669291338
20
-1.811023622047244
40
0.062992125984252
0
CIRCLE
8
BLACK
10
2.9527559055118111
20
-7.3228346456692908
40
0.3346456692913386
0
CIRCLE
8
BLACK
10
2.9527559055118111
20
-8.8976377952755907
40
0.3346456692913386
0
LINE
8
BLACK
6
CONTINUOUS
10
2.1259842519685037
20
-9.21259842519685
11
2.1259842519685037
21
-1.7716535433070866
0
CIRCLE
8
BLACK
10
5.8070866141732278
20
-6.3607622047244092
40
0.0393700787401575
0
CIRCLE
8
BLACK
10
5.3149606299212593
20
-3.0118110236220472
40
0.3346456692913386
0
CIRCLE
8
BLACK
10
4.1338582677165352
20
-3.0118110236220472
40
0.3346456692913386
0
CIRCLE
8
BLACK
10
5.8070866141732278
20
-9.0379275590551185
40
0.1259842519685039
0
CIRCLE
8
BLACK
10
5.3149606299212593
20
-5.3740157480314963
40
0.3346456692913386
0
CIRCLE
8
BLACK
10
5.3149606299212593
20
-4.5866141732283463
40
0.3346456692913386
0
CIRCLE
8
BLACK
10
5.8070866141732278
20
-4.4119433070866139
40
0.0393700787401575
0
CIRCLE
8
BLACK
10
3.4448818897637796
20
-5.1993448818897638
40
0.0393700787401575
0
CIRCLE
8
BLACK
10
3.4448818897637796
20
-3.9395023622047245
40
0.1259842519685039
0
CIRCLE
8
BLACK
10
6.1023622047244093
20
-1.811023622047244
40
0.062992125984252
0
CIRCLE
8
BLACK
10
3.4448818897637796
20
-8.7229669291338574
40
0.0393700787401575
0
CIRCLE
8
BLACK
10
5.8070866141732278
20
-8.2505259842519685
40
0.1259842519685039
0
CIRCLE
8
BLACK
10
2.9527559055118111
20
-6.5354330708661417
40
0.3346456692913386
0
ARC
8
BLACK
10
2.2440944881889764
20
-9.21259842519685
40
0.1181102362204724
50
-180.00000000
51
-90.00000000
0
CIRCLE
8
BLACK
10
2.9527559055118111
20
-8.1102362204724407
40
0.3346456692913386
0
CIRCLE
8
BLACK
10
4.6259842519685037
20
-5.1993448818897638
40
0.0393700787401575
0
CIRCLE
8
BLACK
10
4.1338582677165352
20
-6.5354330708661417
40
0.3346456692913386
0
CIRCLE
8
BLACK
10
3.4448818897637796
20
-5.5143055118110231
40
0.1259842519685039
0
CIRCLE
8
BLACK
10
3.4448818897637796
20
-9.0379275590551185
40
0.1259842519685039
0
CIRCLE
8
BLACK
10
4.6259842519685037
20
-3.6245417322834643
40
0.0393700787401575
0
CIRCLE
8
BLACK
10
4.6259842519685037
20
-2.8371401574803148
40
0.0393700787401575
0
CIRCLE
8
BLACK
10
2.9527559055118111
20
-3.7992125984251968
40
0.3346456692913386
0
CIRCLE
8
BLACK
10
3.4448818897637796
20
-7.4631244094488185
40
0.1259842519685039
0
CIRCLE
8
BLACK
10
3.4448818897637796
20
-2.8371401574803148
40
0.0393700787401575
0
CIRCLE
8
BLACK
10
4.6259842519685037
20
-5.5143055118110231
40
0.1259842519685039
0
CIRCLE
8
BLACK
10
5.3149606299212593
20
-3.7992125984251968
40
0.3346456692913386
0
CIRCLE
8
BLACK
10
5.8070866141732278
20
-6.6757228346456694
40
0.1259842519685039
0
ARC
8
BLACK
10
6.1417322834645667
20
-9.21259842519685
40
0.1181102362204724
50
-90.00000000
51
-0.00000000
0
CIRCLE
8
BLACK
10
5.8070866141732278
20
-3.9395023622047245
40
0.1259842519685039
0
CIRCLE
8
BLACK
10
4.6259842519685037
20
-7.1481637795275592
40
0.0393700787401575
0
CIRCLE
8
BLACK
10
5.3149606299212593
20
-6.5354330708661417
40
0.3346456692913386
0
CIRCLE
8
BLACK
10
4.6259842519685037
20
-8.7229669291338574
40
0.0393700787401575
0
CIRCLE
8
BLACK
10
3.4448818897637796
20
-8.2505259842519685
40
0.1259842519685039
0
CIRCLE
8
BLACK
10
3.4448818897637796
20
-7.1486220472440944
40
0.0393700787401575
0
LINE
8
BLACK
6
CONTINUOUS
10
6.1417322834645667
20
-9.3307086614173222
11
2.2440944881889764
21
-9.3307086614173222
0
CIRCLE
8
BLACK
10
4.1338582677165352
20
-5.3740157480314963
40
0.3346456692913386
0
CIRCLE
8
BLACK
10
5.8070866141732278
20
-7.4631244094488185
40
0.1259842519685039
0
CIRCLE
8
BLACK
10
4.1338582677165352
20
-3.7992125984251968
40
0.3346456692913386
0
CIRCLE
8
BLACK
10
5.3149606299212593
20
-8.1102362204724407
40
0.3346456692913386
0
CIRCLE
8
BLACK
10
3.4448818897637796
20
-7.9355653543307083
40
0.0393700787401575
0
CIRCLE
8
BLACK
10
4.1338582677165352
20
-4.5866141732283463
40
0.3346456692913386
0
CIRCLE
8
BLACK
10
6.1023622047244093
20
-9.1732283464566926
40
0.062992125984252
0
CIRCLE
8
BLACK
10
4.6259842519685037
20
-7.9355653543307083
40
0.0393700787401575
0
LINE
8
BLACK
6
CONTINUOUS
10
6.2598425196850389
20
-1.7716535433070866
11
6.2598425196850389
21
-9.21259842519685
0
ARC
8
BLACK
10
6.1417322834645667
20
-1.7716535433070866
40
0.1181102362204724
50
0.00000000
51
90.00000000
0
CIRCLE
8
BLACK
10
4.6259842519685037
20
-9.0379275590551185
40
0.1259842519685039
0
CIRCLE
8
BLACK
10
2.9527559055118111
20
-4.5866141732283463
40
0.3346456692913386
0
CIRCLE
8
BLACK
10
3.4448818897637796
20
-6.6757228346456694
40
0.1259842519685039
0
CIRCLE
8
BLACK
10
4.6259842519685037
20
-6.6757228346456694
40
0.1259842519685039
0
CIRCLE
8
BLACK
10
4.6259842519685037
20
-3.9395023622047245
40
0.1259842519685039
0
CIRCLE
8
BLACK
10
4.1338582677165352
20
-8.8976377952755907
40
0.3346456692913386
0
CIRCLE
8
BLACK
10
5.8070866141732278
20
-4.726903937007874
40
0.1259842519685039
0
CIRCLE
8
BLACK
10
4.6259842519685037
20
-7.4631244094488185
40
0.1259842519685039
0
CIRCLE
8
BLACK
10
4.6259842519685037
20
-8.2505259842519685
40
0.1259842519685039
0
CIRCLE
8
BLACK
10
5.8070866141732278
20
-7.1481637795275592
40
0.0393700787401575
0
LINE
8
BLACK
6
CONTINUOUS
10
2.2440944881889764
20
-1.6535433070866141
11
6.1417322834645667
21
-1.6535433070866141
0
CIRCLE
8
BLACK
10
2.2834645669291338
20
-9.1732283464566926
40
0.062992125984252
0
CIRCLE
8
BLACK
10
3.4448818897637796
20
-3.1496062992125982
40
0.1259842519685039
0
CIRCLE
8
BLACK
10
5.8070866141732278
20
-5.5143055118110231
40
0.1259842519685039
0
CIRCLE
8
BLACK
10
4.1338582677165352
20
-8.1102362204724407
40
0.3346456692913386
0
CIRCLE
8
BLACK
10
3.4448818897637796
20
-3.6245417322834643
40
0.0393700787401575
0
CIRCLE
8
BLACK
10
5.3149606299212593
20
-7.3228346456692908
40
0.3346456692913386
0
CIRCLE
8
BLACK
10
4.6259842519685037
20
-3.1521007874015745
40
0.1259842519685039
0
CIRCLE
8
BLACK
10
5.8070866141732278
20
-7.9355653543307083
40
0.0393700787401575
0
ARC
8
BLACK
10
2.2440944881889764
20
-1.7716535433070866
40
0.1181102362204724
50
90.00000000
51
180.00000000
0
CIRCLE
8
BLACK
10
5.8070866141732278
20
-2.8371401574803148
40
0.0393700787401575
0
CIRCLE
8
BLACK
10
3.4448818897637796
20
-6.3607622047244092
40
0.0393700787401575
0
CIRCLE
8
BLACK
10
5.8070866141732278
20
-5.1993448818897638
40
0.0393700787401575
0
CIRCLE
8
BLACK
10
4.6259842519685037
20
-6.3607622047244092
40
0.0393700787401575
0
CIRCLE
8
BLACK
10
5.3149606299212593
20
-8.8976377952755907
40
0.3346456692913386
0
CIRCLE
8
BLACK
10
5.8070866141732278
20
-3.6245417322834643
40
0.0393700787401575
0
CIRCLE
8
BLACK
10
3.4448818897637796
20
-4.4119433070866139
40
0.0393700787401575
0
CIRCLE
8
BLACK
10
5.8070866141732278
20
-3.1521007874015745
40
0.1259842519685039
0
CIRCLE
8
BLACK
10
2.9527559055118111
20
-3.0118110236220472
40
0.3346456692913386
0
CIRCLE
8
BLACK
10
2.9527559055118111
20
-5.3740157480314963
40
0.3346456692913386
  0
ENDSEC
  0
EOF
